<svg width="41" height="40" viewBox="0 0 41 40" fill="none" xmlns="http://www.w3.org/2000/svg">
<path d="M17.6675 20C17.6675 18.1591 19.1594 16.6664 21.0004 16.6664C22.8414 16.6664 24.3341 18.1591 24.3341 20C24.3341 21.8409 22.8414 23.3336 21.0004 23.3336C19.1594 23.3336 17.6675 21.8409 17.6675 20ZM15.8653 20C15.8653 22.836 18.1643 25.1349 21.0004 25.1349C23.8365 25.1349 26.1355 22.836 26.1355 20C26.1355 17.164 23.8365 14.8651 21.0004 14.8651C18.1643 14.8651 15.8653 17.164 15.8653 20ZM25.1387 14.6615C25.1386 14.8989 25.2089 15.1309 25.3407 15.3283C25.4725 15.5257 25.6598 15.6796 25.8791 15.7705C26.0983 15.8614 26.3396 15.8852 26.5724 15.839C26.8052 15.7928 27.0191 15.6786 27.187 15.5109C27.3549 15.3431 27.4693 15.1293 27.5157 14.8966C27.5621 14.6638 27.5384 14.4225 27.4477 14.2032C27.3569 13.9839 27.2032 13.7964 27.0059 13.6645C26.8086 13.5326 26.5766 13.4621 26.3393 13.462H26.3388C26.0206 13.4621 25.7156 13.5886 25.4905 13.8135C25.2655 14.0384 25.139 14.3434 25.1387 14.6615V14.6615ZM16.9602 28.1398C15.9852 28.0954 15.4553 27.933 15.1031 27.7958C14.6362 27.614 14.3031 27.3975 13.9528 27.0478C13.6026 26.698 13.3858 26.3652 13.2048 25.8983C13.0675 25.5463 12.9051 25.0162 12.8608 24.0413C12.8123 22.9872 12.8026 22.6706 12.8026 20.0001C12.8026 17.3296 12.8131 17.0138 12.8608 15.9589C12.9052 14.9839 13.0688 14.4549 13.2048 14.1018C13.3866 13.635 13.6031 13.3018 13.9528 12.9516C14.3026 12.6014 14.6354 12.3846 15.1031 12.2036C15.4551 12.0663 15.9852 11.9039 16.9602 11.8596C18.0144 11.8111 18.331 11.8014 21.0004 11.8014C23.6698 11.8014 23.9868 11.8119 25.0418 11.8596C26.0168 11.904 26.5458 12.0676 26.8989 12.2036C27.3658 12.3846 27.6989 12.6018 28.0492 12.9516C28.3994 13.3014 28.6154 13.635 28.7972 14.1018C28.9345 14.4538 29.0969 14.9839 29.1412 15.9589C29.1897 17.0138 29.1994 17.3296 29.1994 20.0001C29.1994 22.6706 29.1897 22.9863 29.1412 24.0413C29.0968 25.0162 28.9336 25.5462 28.7972 25.8983C28.6154 26.3652 28.3989 26.6983 28.0492 27.0478C27.6994 27.3972 27.3658 27.614 26.8989 27.7958C26.5469 27.933 26.0168 28.0954 25.0418 28.1398C23.9876 28.1882 23.671 28.1979 21.0004 28.1979C18.3298 28.1979 18.014 28.1882 16.9602 28.1398V28.1398ZM16.8774 10.0606C15.8128 10.109 15.0854 10.2778 14.4501 10.525C13.7921 10.7803 13.2351 11.1228 12.6785 11.6785C12.122 12.2342 11.7804 12.792 11.5251 13.4499C11.2779 14.0856 11.109 14.8126 11.0606 15.8772C11.0113 16.9434 11 17.2843 11 20C11 22.7157 11.0113 23.0566 11.0606 24.1228C11.109 25.1874 11.2779 25.9144 11.5251 26.5501C11.7804 27.2076 12.122 27.7661 12.6785 28.3215C13.235 28.877 13.7921 29.219 14.4501 29.475C15.0866 29.7222 15.8128 29.891 16.8774 29.9394C17.9443 29.9879 18.2846 30 21.0004 30C23.7162 30 24.0571 29.9887 25.1234 29.9394C26.188 29.891 26.915 29.7222 27.5507 29.475C28.2083 29.219 28.7657 28.8772 29.3223 28.3215C29.8788 27.7658 30.2197 27.2076 30.4757 26.5501C30.723 25.9144 30.8926 25.1874 30.9402 24.1228C30.9887 23.0558 31 22.7157 31 20C31 17.2843 30.9887 16.9434 30.9402 15.8772C30.8918 14.8126 30.723 14.0852 30.4757 13.4499C30.2197 12.7924 29.878 12.235 29.3223 11.6785C28.7666 11.1219 28.2083 10.7803 27.5515 10.525C26.915 10.2778 26.188 10.1082 25.1242 10.0606C24.0579 10.0121 23.717 10 21.0012 10C18.2854 10 17.9443 10.0113 16.8774 10.0606Z" fill="#888888"/>
</svg>
