<svg width="13" height="12" viewBox="0 0 13 12" fill="none" xmlns="http://www.w3.org/2000/svg">
<path d="M4.50048 6C4.50048 4.89547 5.39567 3.99984 6.50024 3.99984C7.60481 3.99984 8.50048 4.89547 8.50048 6C8.50048 7.10453 7.60481 8.00016 6.50024 8.00016C5.39567 8.00016 4.50048 7.10453 4.50048 6ZM3.41919 6C3.41919 7.7016 4.79857 9.08093 6.50024 9.08093C8.20191 9.08093 9.58129 7.7016 9.58129 6C9.58129 4.2984 8.20191 2.91907 6.50024 2.91907C4.79857 2.91907 3.41919 4.2984 3.41919 6ZM8.98324 2.79691C8.98318 2.93931 9.02535 3.07854 9.10442 3.19697C9.18349 3.31541 9.29591 3.40774 9.42745 3.46228C9.559 3.51683 9.70377 3.53115 9.84345 3.50342C9.98314 3.4757 10.1115 3.40717 10.2122 3.30652C10.3129 3.20587 10.3816 3.0776 10.4094 2.93795C10.4372 2.79829 10.423 2.65352 10.3686 2.52193C10.3141 2.39035 10.2219 2.27786 10.1035 2.1987C9.98515 2.11954 9.84596 2.07726 9.70355 2.0772H9.70326C9.51238 2.07729 9.32933 2.15314 9.19433 2.28808C9.05932 2.42302 8.9834 2.60603 8.98324 2.79691V2.79691ZM4.07614 10.8839C3.49114 10.8572 3.17318 10.7598 2.96187 10.6775C2.68174 10.5684 2.48186 10.4385 2.2717 10.2287C2.06155 10.0188 1.93147 9.81912 1.82288 9.53899C1.74051 9.32779 1.64307 9.00974 1.61648 8.42477C1.58739 7.79232 1.58158 7.60234 1.58158 6.00005C1.58158 4.39776 1.58787 4.2083 1.61648 3.57533C1.64312 2.99035 1.74128 2.67293 1.82288 2.4611C1.93195 2.18098 2.06184 1.9811 2.2717 1.77096C2.48157 1.56082 2.68126 1.43074 2.96187 1.32216C3.17308 1.23979 3.49114 1.14235 4.07614 1.11576C4.70862 1.08667 4.89861 1.08086 6.50024 1.08086C8.10187 1.08086 8.29206 1.08715 8.92506 1.11576C9.51006 1.1424 9.82749 1.24056 10.0393 1.32216C10.3195 1.43074 10.5193 1.5611 10.7295 1.77096C10.9397 1.98082 11.0693 2.18098 11.1783 2.4611C11.2607 2.6723 11.3581 2.99035 11.3847 3.57533C11.4138 4.2083 11.4196 4.39776 11.4196 6.00005C11.4196 7.60234 11.4138 7.79179 11.3847 8.42477C11.3581 9.00974 11.2602 9.3277 11.1783 9.53899C11.0693 9.81912 10.9394 10.019 10.7295 10.2287C10.5196 10.4383 10.3195 10.5684 10.0393 10.6775C9.82812 10.7598 9.51006 10.8573 8.92506 10.8839C8.29258 10.9129 8.10259 10.9188 6.50024 10.9188C4.89789 10.9188 4.70842 10.9129 4.07614 10.8839V10.8839ZM4.02646 0.036336C3.3877 0.065424 2.95122 0.166704 2.57003 0.315024C2.17527 0.468192 1.84108 0.67368 1.50713 1.00709C1.17318 1.3405 0.968211 1.6752 0.815037 2.06995C0.666711 2.45136 0.565427 2.88758 0.536337 3.52632C0.506768 4.16606 0.5 4.37059 0.5 6C0.5 7.62941 0.506768 7.83394 0.536337 8.47368C0.565427 9.11246 0.666711 9.54864 0.815037 9.93005C0.968211 10.3246 1.17323 10.6596 1.50713 10.9929C1.84103 11.3262 2.17527 11.5314 2.57003 11.685C2.95194 11.8333 3.3877 11.9346 4.02646 11.9637C4.66657 11.9928 4.87077 12 6.50024 12C8.12971 12 8.33425 11.9932 8.97402 11.9637C9.61283 11.9346 10.049 11.8333 10.4304 11.685C10.825 11.5314 11.1594 11.3263 11.4934 10.9929C11.8273 10.6595 12.0318 10.3246 12.1854 9.93005C12.3338 9.54864 12.4355 9.11242 12.4641 8.47368C12.4932 7.83346 12.5 7.62941 12.5 6C12.5 4.37059 12.4932 4.16606 12.4641 3.52632C12.4351 2.88754 12.3338 2.45112 12.1854 2.06995C12.0318 1.67544 11.8268 1.34102 11.4934 1.00709C11.1599 0.673152 10.825 0.468192 10.4309 0.315024C10.049 0.166704 9.61278 0.064944 8.9745 0.036336C8.33473 0.007248 8.13019 0 6.50072 0C4.87125 0 4.66657 0.006768 4.02646 0.036336Z" fill="white"/>
</svg>
