<svg width="18" height="17" viewBox="0 0 18 17" fill="none" xmlns="http://www.w3.org/2000/svg">
<path d="M1.9468 8.47441L1.94029 8.46766L1.93406 8.46168L1.93403 8.46165L1.93386 8.46149L1.93371 8.46134L1.93362 8.46126L1.93352 8.46116L1.93232 8.45998L1.92254 8.4503C1.91329 8.44106 1.89874 8.42635 1.87967 8.40649C1.84149 8.36673 1.7854 8.30655 1.71756 8.22857C1.58141 8.07206 1.4005 7.84679 1.2226 7.57351C0.855722 7.00996 0.5 6.28653 0.5 5.48054C0.5 3.0184 2.45509 1 4.82143 1C6.81186 1 8.10731 2.23739 8.63762 2.79522L9 3.17639L9.36238 2.79522C9.89269 2.23739 11.1881 1 13.1786 1C15.5449 1 17.5 3.0184 17.5 5.48054C17.5 6.29188 17.1583 7.03015 16.7898 7.58584C16.6078 7.86025 16.4255 8.08064 16.2895 8.23153C16.2217 8.30675 16.166 8.36407 16.1283 8.40157C16.1095 8.4203 16.0953 8.43403 16.0863 8.44251L16.0771 8.45126L16.0763 8.45193L16.0761 8.45213L16.0759 8.4523L16.0757 8.45253L16.0756 8.45262L16.0644 8.4628L16.0532 8.47441L9.10281 15.6749L9.10231 15.6754L9 15.7811L8.89769 15.6754L8.89719 15.6749L1.9468 8.47441Z" stroke="#888888"/>
</svg>
