<svg width="225" height="10" viewBox="0 0 225 10" fill="none" xmlns="http://www.w3.org/2000/svg">
<g clip-path="url(#clip0_722_7479)">
<path d="M2.38742 0.803711H0.5V9.19668H2.38742V0.803711Z" fill="white"/>
<path d="M19.1735 2.45018H22.7676V9.19668H24.6349V2.45018H28.229V0.803711H19.1735V2.45018Z" fill="white"/>
<path d="M46.7617 0.803711L42.1837 9.19668H44.1314L47.605 2.61081L49.4523 6.12461L51.0787 9.19668H53.1669L48.5086 0.803711H46.7617Z" fill="white"/>
<path d="M71.9809 0.803711H70.0935V9.19668H77.9042V7.55021H71.9809V0.803711Z" fill="white"/>
<path d="M102.902 1.46631C102.541 1.24545 102.099 1.06474 101.597 0.964342C101.095 0.863948 100.473 0.803711 99.7499 0.803711H95.1519V9.19668H99.7499C100.493 9.19668 101.115 9.13644 101.617 9.03605C102.119 8.93566 102.561 8.75495 102.922 8.53408C103.485 8.17266 103.906 7.67069 104.228 7.02816C104.529 6.40572 104.689 5.70296 104.689 4.91988C104.689 4.19704 104.529 3.51436 104.228 2.89191C103.886 2.30963 103.444 1.80765 102.902 1.46631ZM97.0393 2.45018H99.5692C100.734 2.45018 101.577 2.65097 102.059 3.03247C102.521 3.41396 102.762 4.05649 102.762 4.96004C102.762 5.90375 102.541 6.56635 102.079 6.94785C101.617 7.34942 100.774 7.55021 99.5692 7.55021H97.0393V2.45018Z" fill="white"/>
<path d="M124.447 0.803711H122.56V9.19668H124.447V0.803711Z" fill="white"/>
<path d="M142.558 2.45018H147.477L142.136 8.19274L142.056 8.27305V9.19668H150.509V7.55021H144.988L150.509 1.64702V0.803711H142.558V2.45018Z" fill="white"/>
<path d="M171.431 0.803711L166.854 9.19668H168.801L172.275 2.61081L175.748 9.19668H177.837L173.178 0.803711H171.431Z" fill="white"/>
<path d="M196.651 0.803711H194.763V9.19668H196.651V0.803711Z" fill="white"/>
<path d="M222.733 0.803711V5.38169C222.733 5.80335 222.733 6.14469 222.753 6.40572C222.653 6.28524 222.532 6.18485 222.432 6.10453L216.488 0.803711H215.264V9.19668H217.031V4.29744C217.031 3.97617 217.031 3.71515 217.011 3.45412C217.051 3.49428 217.091 3.51436 217.111 3.55452L223.335 9.19668H224.46V0.803711H222.733Z" fill="white"/>
</g>
<defs>
<clipPath id="clip0_722_7479">
<rect width="224" height="8.39297" fill="white" transform="translate(0.5 0.803711)"/>
</clipPath>
</defs>
</svg>
