<svg width="41" height="40" viewBox="0 0 41 40" fill="none" xmlns="http://www.w3.org/2000/svg">
<path fill-rule="evenodd" clip-rule="evenodd" d="M10.3562 19.848C10.3562 14.4671 14.7586 10.106 20.1833 10.106C25.6079 10.106 29.9987 14.4729 29.9987 19.8538C29.9987 25.2347 25.6021 29.5958 20.1774 29.5958C18.5222 29.5958 16.8843 29.1753 15.4323 28.3802L9.99609 30.1086L11.7675 24.8775C10.8382 23.3623 10.3562 21.6224 10.3562 19.848ZM24.8315 21.8278C24.8843 21.857 24.9271 21.8805 24.9565 21.8967V21.8848C25.0129 21.918 25.0653 21.9473 25.1132 21.9741C25.2721 22.0631 25.3818 22.1245 25.4263 22.207C25.4843 22.3145 25.4669 22.8336 25.2349 23.4244C25.0029 24.0152 23.9588 24.5523 23.5005 24.5821C23.4234 24.5872 23.3588 24.601 23.2927 24.6151C22.966 24.6849 22.6032 24.7624 20.519 23.8243C18.229 22.7936 16.7722 20.4074 16.4452 19.8718C16.4144 19.8212 16.3936 19.7872 16.3831 19.7723C16.2612 19.5992 15.4085 18.3341 15.455 17.063C15.4991 15.855 16.1037 15.2561 16.3728 14.9896C16.3868 14.9756 16.4 14.9626 16.4121 14.9505C16.5861 14.7535 16.8355 14.6461 17.0907 14.6521C17.2175 14.6566 17.3443 14.6679 17.4611 14.6783C17.4993 14.6817 17.5365 14.685 17.5722 14.6879C17.5918 14.6895 17.6126 14.6894 17.6343 14.6892C17.7733 14.6884 17.9519 14.6872 18.1175 15.1414C18.1905 15.3418 18.3015 15.6534 18.4142 15.9694C18.5967 16.4817 18.7835 17.0057 18.8194 17.0869C18.8774 17.2181 18.9122 17.3673 18.8252 17.5344C18.813 17.5572 18.8016 17.5787 18.7907 17.5992C18.7187 17.735 18.6692 17.8285 18.5583 17.9581C18.5344 17.9861 18.5102 18.0148 18.4859 18.0436C18.3806 18.1684 18.2723 18.2968 18.1639 18.3938C18.0363 18.5191 17.9028 18.6563 18.0363 18.9189C18.1755 19.1874 18.6453 20.0468 19.3704 20.7569C20.1517 21.5354 20.8415 21.8729 21.1857 22.0413C21.2479 22.0717 21.2987 22.0965 21.3369 22.1175C21.5863 22.2548 21.7313 22.2428 21.8821 22.0758C22.0329 21.9087 22.5376 21.3477 22.7116 21.0971C22.8856 20.8464 23.0539 20.8942 23.2801 20.9897C23.4745 21.0791 24.4362 21.6097 24.8315 21.8278Z" fill="#888888"/>
</svg>
